<?xml version="1.0" encoding="UTF-8" standalone="no"?>
<!DOCTYPE svg PUBLIC "-//W3C//DTD SVG 1.1//EN" "http://www.w3.org/Graphics/SVG/1.1/DTD/svg11.dtd">
<svg width="100%" height="100%" viewBox="0 0 3300 2200" version="1.1" xmlns="http://www.w3.org/2000/svg" xmlns:xlink="http://www.w3.org/1999/xlink" xml:space="preserve" xmlns:serif="http://www.serif.com/" style="fill-rule:evenodd;clip-rule:evenodd;">
    <g id="Notes">
        <rect id="artboard" x="0" y="0" width="3300" height="2200" style="fill:white;"/>
        <path d="M263,292L3036,292" style="fill:none;fill-rule:nonzero;stroke:black;stroke-width:0.5px;"/>
        <g transform="matrix(1,0,0,1,263,322)">
            <text x="0px" y="0px" style="font-family:'SFProDisplay-Bold', 'SF Pro Display';font-weight:700;font-size:16px;">W<tspan x="14.508px " y="0px ">e</tspan>ight/Scale V<tspan x="111.125px " y="0px ">a</tspan>riations</text>
        </g>
        <g transform="matrix(1,0,0,1,559.711,322)">
            <text x="-30.398px" y="0px" style="font-family:'SFProDisplay-Regular', 'SF Pro Display';font-size:16px;">Ultr<tspan x="-6.398px " y="0px ">a</tspan>light</text>
        </g>
        <g transform="matrix(1,0,0,1,856.422,322)">
            <text x="-14.809px" y="0px" style="font-family:'SFProDisplay-Regular', 'SF Pro Display';font-size:16px;">Thin</text>
        </g>
        <g transform="matrix(1,0,0,1,1153.13,322)">
            <text x="-16.945px" y="0px" style="font-family:'SFProDisplay-Regular', 'SF Pro Display';font-size:16px;">Light</text>
        </g>
        <g transform="matrix(1,0,0,1,1449.84,322)">
            <text x="-25.613px" y="0px" style="font-family:'SFProDisplay-Regular', 'SF Pro Display';font-size:16px;">Regular</text>
        </g>
        <g transform="matrix(1,0,0,1,1746.56,322)">
            <text x="-27.449px" y="0px" style="font-family:'SFProDisplay-Regular', 'SF Pro Display';font-size:16px;">Medium</text>
        </g>
        <g transform="matrix(1,0,0,1,2043.27,322)">
            <text x="-31.645px" y="0px" style="font-family:'SFProDisplay-Regular', 'SF Pro Display';font-size:16px;">Semibold</text>
        </g>
        <g transform="matrix(1,0,0,1,2339.98,322)">
            <text x="-15.145px" y="0px" style="font-family:'SFProDisplay-Regular', 'SF Pro Display';font-size:16px;">Bold</text>
        </g>
        <g transform="matrix(1,0,0,1,2636.69,322)">
            <text x="-21.461px" y="0px" style="font-family:'SFProDisplay-Regular', 'SF Pro Display';font-size:16px;">Heavy</text>
        </g>
        <g transform="matrix(1,0,0,1,2933.4,322)">
            <text x="-18.375px" y="0px" style="font-family:'SFProDisplay-Regular', 'SF Pro Display';font-size:16px;">Black</text>
        </g>
        <path d="M263,1903L3036,1903" style="fill:none;fill-rule:nonzero;stroke:black;stroke-width:0.5px;"/>
        <g transform="matrix(1,0,0,1,263,1933)">
            <path d="M9.248,0.83C13.555,0.83 17.139,-2.744 17.139,-7.051C17.139,-11.357 13.545,-14.932 9.238,-14.932C4.941,-14.932 1.367,-11.357 1.367,-7.051C1.367,-2.744 4.951,0.83 9.248,0.83ZM9.248,-0.654C5.703,-0.654 2.871,-3.496 2.871,-7.051C2.871,-10.605 5.693,-13.447 9.238,-13.447C12.793,-13.447 15.635,-10.605 15.645,-7.051C15.654,-3.496 12.803,-0.654 9.248,-0.654ZM9.229,-3.428C9.697,-3.428 9.971,-3.74 9.971,-4.258L9.971,-6.318L12.197,-6.318C12.695,-6.318 13.037,-6.572 13.037,-7.041C13.037,-7.52 12.715,-7.783 12.197,-7.783L9.971,-7.783L9.971,-10.01C9.971,-10.527 9.697,-10.85 9.229,-10.85C8.76,-10.85 8.506,-10.508 8.506,-10.01L8.506,-7.783L6.299,-7.783C5.781,-7.783 5.449,-7.52 5.449,-7.041C5.449,-6.572 5.801,-6.318 6.299,-6.318L8.506,-6.318L8.506,-4.258C8.506,-3.76 8.76,-3.428 9.229,-3.428Z" style="fill-rule:nonzero;"/>
        </g>
        <g transform="matrix(1,0,0,1,281.506,1933)">
            <path d="M11.709,2.91C17.148,2.91 21.67,-1.602 21.67,-7.051C21.67,-12.49 17.139,-17.012 11.699,-17.012C6.25,-17.012 1.748,-12.49 1.748,-7.051C1.748,-1.602 6.26,2.91 11.709,2.91ZM11.709,1.25C7.1,1.25 3.418,-2.441 3.418,-7.051C3.418,-11.65 7.09,-15.352 11.699,-15.352C16.299,-15.352 20,-11.65 20.01,-7.051C20.02,-2.441 16.309,1.25 11.709,1.25ZM11.68,-2.412C12.207,-2.412 12.52,-2.773 12.52,-3.34L12.52,-6.23L15.576,-6.23C16.123,-6.23 16.504,-6.514 16.504,-7.031C16.504,-7.559 16.143,-7.861 15.576,-7.861L12.52,-7.861L12.52,-10.928C12.52,-11.504 12.207,-11.855 11.68,-11.855C11.162,-11.855 10.879,-11.484 10.879,-10.928L10.879,-7.861L7.832,-7.861C7.256,-7.861 6.895,-7.559 6.895,-7.031C6.895,-6.514 7.285,-6.23 7.832,-6.23L10.879,-6.23L10.879,-3.34C10.879,-2.793 11.162,-2.412 11.68,-2.412Z" style="fill-rule:nonzero;"/>
        </g>
        <g transform="matrix(1,0,0,1,304.914,1933)">
            <path d="M14.971,5.674C21.934,5.674 27.686,-0.078 27.686,-7.041C27.686,-14.004 21.924,-19.756 14.961,-19.756C7.998,-19.756 2.256,-14.004 2.256,-7.041C2.256,-0.078 8.008,5.674 14.971,5.674ZM14.971,3.857C8.926,3.857 4.082,-1.006 4.082,-7.041C4.082,-13.076 8.916,-17.94 14.961,-17.94C20.996,-17.94 25.859,-13.076 25.869,-7.041C25.879,-1.006 21.006,3.857 14.971,3.857ZM14.941,-1.064C15.518,-1.064 15.859,-1.455 15.859,-2.061L15.859,-6.133L20.098,-6.133C20.693,-6.133 21.113,-6.465 21.113,-7.021C21.113,-7.598 20.723,-7.939 20.098,-7.939L15.859,-7.939L15.859,-12.188C15.859,-12.803 15.518,-13.193 14.941,-13.193C14.385,-13.193 14.063,-12.783 14.063,-12.188L14.063,-7.939L9.824,-7.939C9.209,-7.939 8.809,-7.598 8.809,-7.021C8.809,-6.465 9.238,-6.133 9.824,-6.133L14.063,-6.133L14.063,-2.061C14.063,-1.475 14.385,-1.064 14.941,-1.064Z" style="fill-rule:nonzero;"/>
        </g>
        <g transform="matrix(1,0,0,1,263,1953)">
            <text x="0px" y="0px" style="font-family:'SFProDisplay-Bold', 'SF Pro Display';font-weight:700;font-size:16px;">Design V<tspan x="63.789px " y="0px ">a</tspan>riations</text>
        </g>
        <g transform="matrix(1,0,0,1,263,1971)">
            <text x="0px" y="0px" style="font-family:'SFProDisplay-Regular', 'SF Pro Display';font-size:16px;">Symbols ar<tspan x="74.047px " y="0px ">e</tspan> support<tspan x="136.984px " y="0px ">e</tspan>d in up t<tspan x="197.383px " y="0px ">o</tspan> nine weights and thr<tspan x="343.211px " y="0px ">e</tspan>e scales.</text>
        </g>
        <g transform="matrix(1,0,0,1,263,1989)">
            <text x="0px" y="0px" style="font-family:'SFProDisplay-Regular', 'SF Pro Display';font-size:16px;">F<tspan x="8.133px " y="0px ">o</tspan>r optimal lay<tspan x="96.477px " y="0px ">o</tspan>ut with t<tspan x="157.523px 165.563px " y="0px 0px ">ex</tspan>t and other symbols,<tspan x="307.547px 310.828px 318.32px " y="0px 0px 0px "> ve</tspan>rtically align</text>
        </g>
        <g transform="matrix(1,0,0,1,263,2007)">
            <text x="0px" y="0px" style="font-family:'SFProDisplay-Regular', 'SF Pro Display';font-size:16px;">symbols with the adjacent t<tspan x="181.305px 189.344px " y="0px 0px ">ex</tspan>t.</text>
        </g>
        <rect x="776" y="1919" width="3" height="14" style="fill:rgb(0,174,239);fill-opacity:0.4;"/>
        <g transform="matrix(1,0,0,1,779,1933)">
            <path d="M10.527,0L12.373,0L7.178,-14.092L5.439,-14.092L0.244,0L2.09,0L3.506,-4.033L9.111,-4.033L10.527,0ZM6.279,-11.953L6.338,-11.953L8.594,-5.527L4.023,-5.527L6.279,-11.953Z" style="fill-rule:nonzero;"/>
        </g>
        <rect x="791.617" y="1919" width="3" height="14" style="fill:rgb(0,174,239);fill-opacity:0.4;"/>
        <g transform="matrix(1,0,0,1,776,1953)">
            <text x="0px" y="0px" style="font-family:'SFProDisplay-Bold', 'SF Pro Display';font-weight:700;font-size:16px;">Side Bearings</text>
        </g>
        <g transform="matrix(1,0,0,1,776,1971)">
            <text x="0px" y="0px" style="font-family:'SFProDisplay-Regular', 'SF Pro Display';font-size:16px;">Horiz<tspan x="35.047px " y="0px ">o</tspan>nt<tspan x="56.633px " y="0px ">a</tspan>l padding on the left and right side of each symbol</text>
        </g>
        <g transform="matrix(1,0,0,1,776,1989)">
            <text x="0px" y="0px" style="font-family:'SFProDisplay-Regular', 'SF Pro Display';font-size:16px;">can be adjust<tspan x="88.719px " y="0px ">e</tspan>d b<tspan x="117.688px " y="0px ">y</tspan> modifying the width of the blue r<tspan x="341.977px " y="0px ">e</tspan>ct<tspan x="362.852px " y="0px ">a</tspan>ngles.</text>
        </g>
        <g transform="matrix(1,0,0,1,776,2007)">
            <text x="0px" y="0px" style="font-family:'SFProDisplay-Regular', 'SF Pro Display';font-size:16px;">Modifications ar<tspan x="106.391px " y="0px ">e</tspan> aut<tspan x="138.914px " y="0px ">o</tspan>matically applied pr<tspan x="275.82px " y="0px ">o</tspan>portionally t<tspan x="361.742px " y="0px ">o</tspan> all</text>
        </g>
        <g transform="matrix(1,0,0,1,776,2025)">
            <text x="0px" y="0px" style="font-family:'SFProDisplay-Regular', 'SF Pro Display';font-size:16px;">scales and weights.</text>
        </g>
        <g transform="matrix(1,0,0,1,1289,1933)">
            <path d="M2.969,2.354L3.809,3.193C4.844,4.229 6.123,4.15 7.197,2.979L16.162,-6.826C16.553,-6.748 16.963,-6.846 17.49,-7.021C18.174,-7.256 18.272,-7.256 18.389,-7.139C18.535,-7.012 18.486,-6.895 18.242,-6.25C17.881,-5.332 17.813,-4.795 18.555,-4.023L19.424,-3.135C20.273,-2.246 21.328,-2.266 22.217,-3.145L25.059,-5.977C25.947,-6.865 25.957,-7.93 25.078,-8.779L24.18,-9.648C23.408,-10.4 22.871,-10.352 21.963,-9.98C21.318,-9.727 21.201,-9.688 21.065,-9.814C20.938,-9.932 20.947,-10.039 21.182,-10.713C21.533,-11.69 21.572,-12.285 20.752,-13.096L19.336,-14.512C15.195,-18.613 11.23,-18.74 7.656,-15.44C7.08,-14.902 6.992,-14.15 7.539,-13.613L7.793,-13.359C8.223,-12.93 8.867,-12.842 9.414,-13.115C11.065,-13.945 12.256,-14.023 13.457,-12.979L13.027,-11.416C12.852,-10.801 12.793,-10.342 12.92,-9.932L3.184,-1.045C2.021,0.029 1.934,1.328 2.969,2.354ZM8.965,-14.492C8.896,-14.57 8.867,-14.658 8.994,-14.756C11.709,-17.285 15.039,-16.846 18.35,-13.525L19.697,-12.168C20.088,-11.777 20.098,-11.582 19.883,-10.869C19.658,-10.127 19.502,-9.531 20.147,-8.887C20.811,-8.223 21.289,-8.418 22.207,-8.633C22.9,-8.799 23.066,-8.799 23.447,-8.418L24.092,-7.773C24.404,-7.48 24.414,-7.324 24.072,-6.973L21.221,-4.131C20.889,-3.799 20.723,-3.799 20.43,-4.102L19.785,-4.756C19.414,-5.137 19.414,-5.303 19.58,-6.016C19.785,-6.885 19.981,-7.383 19.326,-8.047C18.672,-8.721 18.076,-8.574 17.344,-8.33C16.563,-8.066 16.328,-8.066 15.898,-8.496L14.609,-9.785C14.17,-10.225 14.131,-10.44 14.268,-10.908L15.029,-13.398C13.389,-15.283 11.494,-15.557 9.209,-14.443C9.111,-14.395 9.043,-14.414 8.965,-14.492ZM3.965,1.367C3.525,0.928 3.545,0.537 4.141,-0.01L13.74,-8.818L15,-7.559L6.172,2.021C5.625,2.607 5.244,2.646 4.795,2.197L3.965,1.367Z" style="fill-rule:nonzero;"/>
        </g>
        <g transform="matrix(1,0,0,1,1289,1953)">
            <text x="0px" y="0px" style="font-family:'SFProDisplay-Bold', 'SF Pro Display';font-weight:700;font-size:16px;">Exporting</text>
        </g>
        <g transform="matrix(1,0,0,1,1289,1971)">
            <text x="0px" y="0px" style="font-family:'SFProDisplay-Regular', 'SF Pro Display';font-size:16px;">Symbols should be outlined when e<tspan x="235.273px " y="0px ">x</tspan>porting t<tspan x="298.164px " y="0px ">o</tspan> ensur<tspan x="346.977px " y="0px ">e</tspan> the</text>
        </g>
        <g transform="matrix(1,0,0,1,1289,1989)">
            <text x="0px" y="0px" style="font-family:'SFProDisplay-Regular', 'SF Pro Display';font-size:16px;">design is pr<tspan x="75.586px " y="0px ">e</tspan>serv<tspan x="111.844px " y="0px ">e</tspan>d when submitting t<tspan x="251.008px " y="0px ">o</tspan> X<tspan x="272.391px " y="0px ">c</tspan>ode.</text>
        </g>
        <g id="template-version" transform="matrix(1,0,0,1,3036,1933)">
            <text x="-94.609px" y="0px" style="font-family:'SFProDisplay-Regular', 'SF Pro Display';font-size:16px;">T<tspan x="-87.422px " y="0px ">e</tspan>mplat<tspan x="-41.703px " y="0px ">e</tspan> v<tspan x="-23.672px -19.609px -10.219px -7.094px " y="0px 0px 0px 0px ">.0.1</tspan></text>
        </g>
        <g transform="matrix(1,0,0,1,3036,1951)">
            <text x="-143.172px" y="0px" style="font-family:'SFProDisplay-Regular', 'SF Pro Display';font-size:16px;">Gener<tspan x="-102.273px -94.242px -89.656px " y="0px 0px 0px ">ate</tspan>d fr<tspan x="-59.922px " y="0px ">o</tspan>m cir<tspan x="-19.477px " y="0px ">c</tspan>le</text>
        </g>
        <g transform="matrix(1,0,0,1,3036,1969)">
            <text x="-143.086px" y="0px" style="font-family:'SFProDisplay-Regular', 'SF Pro Display';font-size:16px;">T<tspan x="-135.664px " y="0px ">y</tspan>peset at 100 points</text>
        </g>
        <g transform="matrix(1,0,0,1,263,726)">
            <text x="0px" y="0px" style="font-family:'SFProDisplay-Regular', 'SF Pro Display';font-size:16px;">Small</text>
        </g>
        <g transform="matrix(1,0,0,1,263,1156)">
            <text x="0px" y="0px" style="font-family:'SFProDisplay-Regular', 'SF Pro Display';font-size:16px;">Medium</text>
        </g>
        <g transform="matrix(1,0,0,1,263,1586)">
            <text x="0px" y="0px" style="font-family:'SFProDisplay-Regular', 'SF Pro Display';font-size:16px;">Lar<tspan x="20.961px " y="0px ">g</tspan>e</text>
        </g>
    </g>
    <g id="Guides">
        <g id="H-reference" transform="matrix(1,0,0,1,339,696)">
            <path d="M54.932,0L57.666,0L30.566,-70.459L28.076,-70.459L0.977,0L3.662,0L12.94,-24.463L45.703,-24.463L54.932,0ZM29.199,-67.09L29.443,-67.09L44.824,-26.709L13.818,-26.709L29.199,-67.09Z" style="fill:rgb(39,170,225);fill-rule:nonzero;"/>
        </g>
        <path id="Baseline-S" d="M263,696L3036,696" style="fill:none;fill-rule:nonzero;stroke:rgb(39,170,225);stroke-width:0.58px;"/>
        <path id="Capline-S" d="M263,625.541L3036,625.541" style="fill:none;fill-rule:nonzero;stroke:rgb(39,170,225);stroke-width:0.58px;"/>
        <g id="H-reference1" serif:id="H-reference" transform="matrix(1,0,0,1,339,1126)">
            <path d="M54.932,0L57.666,0L30.566,-70.459L28.076,-70.459L0.977,0L3.662,0L12.94,-24.463L45.703,-24.463L54.932,0ZM29.199,-67.09L29.443,-67.09L44.824,-26.709L13.818,-26.709L29.199,-67.09Z" style="fill:rgb(39,170,225);fill-rule:nonzero;"/>
        </g>
        <path id="Baseline-M" d="M263,1126L3036,1126" style="fill:none;fill-rule:nonzero;stroke:rgb(39,170,225);stroke-width:0.58px;"/>
        <path id="Capline-M" d="M263,1055.54L3036,1055.54" style="fill:none;fill-rule:nonzero;stroke:rgb(39,170,225);stroke-width:0.58px;"/>
        <g id="H-reference2" serif:id="H-reference" transform="matrix(1,0,0,1,339,1556)">
            <path d="M54.932,0L57.666,0L30.566,-70.459L28.076,-70.459L0.977,0L3.662,0L12.94,-24.463L45.703,-24.463L54.932,0ZM29.199,-67.09L29.443,-67.09L44.824,-26.709L13.818,-26.709L29.199,-67.09Z" style="fill:rgb(39,170,225);fill-rule:nonzero;"/>
        </g>
        <path id="Baseline-L" d="M263,1556L3036,1556" style="fill:none;fill-rule:nonzero;stroke:rgb(39,170,225);stroke-width:0.58px;"/>
        <path id="Capline-L" d="M263,1485.54L3036,1485.54" style="fill:none;fill-rule:nonzero;stroke:rgb(39,170,225);stroke-width:0.58px;"/>
        <rect id="left-margin" x="1391.32" y="1030.79" width="8.74" height="119.336" style="fill:rgb(0,174,239);fill-opacity:0.4;"/>
        <rect id="right-margin" x="1499.67" y="1030.79" width="8.691" height="119.336" style="fill:rgb(0,174,239);fill-opacity:0.4;"/>
    </g>
    <g id="Symbols">
        <g id="Ultralight-S" transform="matrix(1,0,0,1,515.644,696)">
            <path d="M44.043,2.051C64.502,2.051 81.299,-14.697 81.299,-35.156C81.299,-55.615 64.502,-72.363 44.043,-72.363C23.584,-72.363 6.836,-55.615 6.836,-35.156C6.836,-14.697 23.584,2.051 44.043,2.051ZM44.043,-0.146C24.756,-0.146 9.082,-15.869 9.082,-35.156C9.082,-54.443 24.756,-70.166 44.043,-70.166C63.379,-70.166 79.053,-54.443 79.053,-35.156C79.053,-15.869 63.379,-0.146 44.043,-0.146Z" style="fill:none;fill-rule:nonzero;"/>
        </g>
        <g id="Thin-S" transform="matrix(1,0,0,1,811.867,696)">
            <path d="M44.58,2.539C65.283,2.539 82.275,-14.453 82.275,-35.205C82.275,-55.908 65.234,-72.9 44.531,-72.9C23.828,-72.9 6.836,-55.908 6.836,-35.205C6.836,-14.453 23.877,2.539 44.58,2.539ZM44.58,-0.879C25.586,-0.879 10.254,-16.211 10.254,-35.205C10.254,-54.15 25.586,-69.482 44.531,-69.482C63.525,-69.482 78.857,-54.15 78.857,-35.205C78.857,-16.211 63.525,-0.879 44.58,-0.879Z" style="fill:none;fill-rule:nonzero;"/>
        </g>
        <g id="Light-S" transform="matrix(1,0,0,1,1107.6,696)">
            <path d="M45.508,3.467C66.699,3.467 84.229,-14.063 84.229,-35.205C84.229,-56.397 66.65,-73.926 45.508,-73.926C24.316,-73.926 6.836,-56.397 6.836,-35.205C6.836,-14.063 24.365,3.467 45.508,3.467ZM45.508,-2.246C27.246,-2.246 12.598,-16.943 12.598,-35.205C12.598,-53.516 27.197,-68.213 45.508,-68.213C63.77,-68.213 78.467,-53.516 78.516,-35.205C78.516,-16.943 63.818,-2.246 45.508,-2.246Z" style="fill:none;fill-rule:nonzero;"/>
        </g>
        <g id="Regular-S" transform="matrix(1,0,0,1,1403.58,696)">
            <path d="M46.24,4.15C67.773,4.15 85.693,-13.721 85.693,-35.254C85.693,-56.787 67.725,-74.658 46.191,-74.658C24.707,-74.658 6.836,-56.787 6.836,-35.254C6.836,-13.721 24.756,4.15 46.24,4.15ZM46.24,-3.271C28.516,-3.271 14.355,-17.481 14.355,-35.254C14.355,-53.027 28.467,-67.236 46.191,-67.236C63.965,-67.236 78.174,-53.027 78.223,-35.254C78.272,-17.481 64.014,-3.271 46.24,-3.271Z" style="fill:none;fill-rule:nonzero;"/>
        </g>
        <g id="Medium-S" transform="matrix(1,0,0,1,1699.7,696)">
            <path d="M46.826,4.785C68.75,4.785 86.865,-13.33 86.865,-35.254C86.865,-57.129 68.701,-75.244 46.826,-75.244C24.902,-75.244 6.836,-57.129 6.836,-35.254C6.836,-13.33 24.951,4.785 46.826,4.785ZM46.826,-4.199C29.639,-4.199 15.869,-18.018 15.869,-35.254C15.869,-52.441 29.59,-66.26 46.826,-66.26C64.014,-66.26 77.832,-52.441 77.881,-35.254C77.881,-18.018 64.063,-4.199 46.826,-4.199Z" style="fill:none;fill-rule:nonzero;"/>
        </g>
        <g id="Semibold-S" transform="matrix(1,0,0,1,1995.98,696)">
            <path d="M47.315,5.225C69.482,5.225 87.744,-13.037 87.744,-35.254C87.744,-57.422 69.434,-75.684 47.266,-75.684C25.098,-75.684 6.836,-57.422 6.836,-35.254C6.836,-13.037 25.098,5.225 47.315,5.225ZM47.315,-4.932C30.469,-4.932 17.041,-18.408 17.041,-35.254C17.041,-52.051 30.469,-65.527 47.266,-65.527C64.063,-65.527 77.588,-52.051 77.588,-35.254C77.637,-18.408 64.111,-4.932 47.315,-4.932Z" style="fill:none;fill-rule:nonzero;"/>
        </g>
        <g id="Bold-S" transform="matrix(1,0,0,1,2292.1,696)">
            <path d="M47.9,5.811C70.41,5.811 88.916,-12.647 88.916,-35.205C88.916,-57.764 70.41,-76.269 47.852,-76.269C25.293,-76.269 6.836,-57.764 6.836,-35.205C6.836,-12.647 25.342,5.811 47.9,5.811ZM47.9,-5.859C31.641,-5.859 18.555,-18.945 18.555,-35.205C18.555,-51.465 31.592,-64.551 47.852,-64.551C64.111,-64.551 77.197,-51.465 77.246,-35.205C77.246,-18.945 64.16,-5.859 47.9,-5.859Z" style="fill:none;fill-rule:nonzero;"/>
        </g>
        <g id="Heavy-S" transform="matrix(1,0,0,1,2587.96,696)">
            <path d="M48.731,6.689C71.826,6.689 90.625,-12.109 90.625,-35.205C90.625,-58.301 71.826,-77.1 48.731,-77.1C25.635,-77.1 6.836,-58.301 6.836,-35.205C6.836,-12.109 25.635,6.689 48.731,6.689ZM48.731,-7.227C33.301,-7.227 20.752,-19.727 20.752,-35.205C20.752,-50.684 33.301,-63.184 48.731,-63.184C64.209,-63.184 76.709,-50.684 76.709,-35.205C76.709,-19.727 64.209,-7.227 48.731,-7.227Z" style="fill:none;fill-rule:nonzero;"/>
        </g>
        <g id="Black-S" transform="matrix(1,0,0,1,2883.89,696)">
            <path d="M49.512,7.471C73.096,7.471 92.188,-11.621 92.188,-35.205C92.188,-58.789 73.096,-77.881 49.512,-77.881C25.928,-77.881 6.836,-58.789 6.836,-35.205C6.836,-11.621 25.928,7.471 49.512,7.471ZM49.512,-8.447C34.766,-8.447 22.754,-20.459 22.754,-35.205C22.754,-49.951 34.766,-61.914 49.512,-61.914C64.258,-61.914 76.269,-49.951 76.221,-35.205C76.221,-20.459 64.258,-8.447 49.512,-8.447Z" style="fill:none;fill-rule:nonzero;"/>
        </g>
        <g id="Ultralight-M" transform="matrix(1,0,0,1,503.656,1126)">
            <path d="M56.055,12.207C82.08,12.207 103.369,-9.082 103.369,-35.156C103.369,-61.182 82.08,-82.471 56.055,-82.471C30.029,-82.471 8.74,-61.182 8.74,-35.156C8.74,-9.082 30.029,12.207 56.055,12.207ZM56.055,9.814C31.25,9.814 11.133,-10.352 11.133,-35.156C11.133,-59.912 31.25,-80.078 56.055,-80.078C80.811,-80.078 100.977,-59.912 100.977,-35.156C100.977,-10.352 80.811,9.814 56.055,9.814Z" style="fill:none;fill-rule:nonzero;"/>
        </g>
        <g id="Thin-M" transform="matrix(1,0,0,1,799.806,1126)">
            <path d="M56.592,12.744C82.91,12.744 104.492,-8.838 104.492,-35.156C104.492,-61.475 82.91,-83.057 56.592,-83.057C30.322,-83.057 8.74,-61.475 8.74,-35.156C8.74,-8.838 30.322,12.744 56.592,12.744ZM56.592,8.984C32.227,8.984 12.451,-10.791 12.451,-35.156C12.451,-59.522 32.227,-79.297 56.592,-79.297C80.957,-79.297 100.781,-59.522 100.781,-35.156C100.781,-10.791 81.006,8.984 56.592,8.984Z" style="fill:none;fill-rule:nonzero;"/>
        </g>
        <g id="Light-M" transform="matrix(1,0,0,1,1095.42,1126)">
            <path d="M57.715,13.77C84.522,13.77 106.689,-8.398 106.689,-35.205C106.689,-62.012 84.473,-84.18 57.666,-84.18C30.859,-84.18 8.74,-62.012 8.74,-35.205C8.74,-8.398 30.859,13.77 57.715,13.77ZM57.715,7.471C34.082,7.471 15.088,-11.572 15.088,-35.205C15.088,-58.838 34.033,-77.832 57.666,-77.832C81.299,-77.832 100.342,-58.838 100.342,-35.205C100.391,-11.572 81.299,7.471 57.715,7.471Z" style="fill:none;fill-rule:nonzero;"/>
        </g>
        <g id="Regular-M" transform="matrix(1,0,0,1,1391.32,1126)">
            <path d="M58.545,14.551C85.742,14.551 108.35,-8.008 108.35,-35.254C108.35,-62.451 85.693,-85.059 58.496,-85.059C31.25,-85.059 8.74,-62.451 8.74,-35.254C8.74,-8.008 31.299,14.551 58.545,14.551ZM58.545,6.25C35.498,6.25 17.09,-12.207 17.09,-35.254C17.09,-58.252 35.449,-76.758 58.496,-76.758C81.494,-76.758 100,-58.252 100.049,-35.254C100.098,-12.207 81.543,6.25 58.545,6.25Z" style="fill:none;fill-rule:nonzero;"/>
        </g>
        <g id="Medium-M" transform="matrix(1,0,0,1,1687.33,1126)">
            <path d="M59.228,15.283C86.865,15.283 109.717,-7.568 109.717,-35.205C109.717,-62.891 86.816,-85.742 59.18,-85.742C31.543,-85.742 8.74,-62.891 8.74,-35.205C8.74,-7.568 31.592,15.283 59.228,15.283ZM59.228,5.176C36.816,5.176 18.848,-12.842 18.848,-35.205C18.848,-57.617 36.768,-75.635 59.18,-75.635C81.592,-75.635 99.609,-57.617 99.658,-35.205C99.658,-12.842 81.641,5.176 59.228,5.176Z" style="fill:none;fill-rule:nonzero;"/>
        </g>
        <g id="Semibold-M" transform="matrix(1,0,0,1,1983.5,1126)">
            <path d="M59.766,15.82C87.744,15.82 110.791,-7.227 110.791,-35.205C110.791,-63.184 87.695,-86.279 59.717,-86.279C31.738,-86.279 8.74,-63.184 8.74,-35.205C8.74,-7.227 31.787,15.82 59.766,15.82ZM59.766,4.346C37.842,4.346 20.215,-13.281 20.215,-35.205C20.215,-57.129 37.793,-74.805 59.717,-74.805C81.641,-74.805 99.316,-57.129 99.316,-35.205C99.365,-13.281 81.69,4.346 59.766,4.346Z" style="fill:none;fill-rule:nonzero;"/>
        </g>
        <g id="Bold-M" transform="matrix(1,0,0,1,2279.5,1126)">
            <path d="M60.449,16.504C88.867,16.504 112.207,-6.787 112.207,-35.205C112.207,-63.623 88.867,-86.963 60.449,-86.963C32.031,-86.963 8.74,-63.623 8.74,-35.205C8.74,-6.787 32.08,16.504 60.449,16.504ZM60.449,3.223C39.16,3.223 22.022,-13.916 22.022,-35.205C22.022,-56.494 39.16,-73.682 60.449,-73.682C81.738,-73.682 98.877,-56.494 98.926,-35.205C98.926,-13.916 81.787,3.223 60.449,3.223Z" style="fill:none;fill-rule:nonzero;"/>
        </g>
        <g id="Heavy-M" transform="matrix(1,0,0,1,2575.19,1126)">
            <path d="M61.475,17.578C90.527,17.578 114.258,-6.152 114.258,-35.205C114.258,-64.258 90.527,-87.988 61.475,-87.988C32.422,-87.988 8.74,-64.258 8.74,-35.205C8.74,-6.152 32.471,17.578 61.475,17.578ZM61.475,1.66C41.113,1.66 24.658,-14.844 24.658,-35.205C24.658,-55.566 41.113,-72.07 61.475,-72.07C81.836,-72.07 98.34,-55.566 98.34,-35.205C98.34,-14.844 81.885,1.66 61.475,1.66Z" style="fill:none;fill-rule:nonzero;"/>
        </g>
        <g id="Black-M" transform="matrix(1,0,0,1,2871,1126)">
            <path d="M62.402,18.457C91.992,18.457 116.064,-5.615 116.064,-35.205C116.064,-64.795 91.992,-88.867 62.402,-88.867C32.813,-88.867 8.74,-64.795 8.74,-35.205C8.74,-5.615 32.813,18.457 62.402,18.457ZM62.402,0.195C42.822,0.195 27.002,-15.625 27.002,-35.205C27.002,-54.736 42.822,-70.606 62.402,-70.606C81.982,-70.606 97.803,-54.736 97.803,-35.205C97.803,-15.625 81.982,0.195 62.402,0.195Z" style="fill:none;fill-rule:nonzero;"/>
        </g>
        <g id="Ultralight-L" transform="matrix(1,0,0,1,487.641,1556)">
            <path d="M72.07,25.732C105.566,25.732 132.91,-1.611 132.91,-35.107C132.91,-68.555 105.566,-95.898 72.07,-95.898C38.623,-95.898 11.279,-68.555 11.279,-35.107C11.279,-1.611 38.623,25.732 72.07,25.732ZM72.07,23.242C39.941,23.242 13.77,-2.979 13.77,-35.107C13.77,-67.236 39.941,-93.408 72.07,-93.408C104.199,-93.408 130.42,-67.236 130.371,-35.107C130.371,-2.979 104.199,23.242 72.07,23.242Z" style="fill:none;fill-rule:nonzero;"/>
        </g>
        <g id="Thin-L" transform="matrix(1,0,0,1,783.717,1556)">
            <path d="M72.705,26.318C106.494,26.318 134.131,-1.367 134.131,-35.107C134.131,-68.897 106.445,-96.582 72.705,-96.582C38.916,-96.582 11.279,-68.897 11.279,-35.107C11.279,-1.367 38.916,26.318 72.705,26.318ZM72.705,22.315C41.016,22.315 15.234,-3.418 15.234,-35.107C15.234,-66.846 41.016,-92.578 72.705,-92.578C104.395,-92.578 130.127,-66.846 130.176,-35.107C130.176,-3.418 104.395,22.315 72.705,22.315Z" style="fill:none;fill-rule:nonzero;"/>
        </g>
        <g id="Light-L" transform="matrix(1,0,0,1,1079.21,1556)">
            <path d="M73.926,27.49C108.301,27.49 136.572,-0.83 136.572,-35.156C136.572,-69.531 108.252,-97.852 73.877,-97.852C39.551,-97.852 11.279,-69.531 11.279,-35.156C11.279,-0.83 39.551,27.49 73.926,27.49ZM73.926,20.606C43.066,20.606 18.164,-4.346 18.164,-35.156C18.164,-66.016 43.066,-90.918 73.877,-90.918C104.736,-90.918 129.639,-66.016 129.688,-35.156C129.736,-4.346 104.785,20.606 73.926,20.606Z" style="fill:none;fill-rule:nonzero;"/>
        </g>
        <g id="Regular-L" transform="matrix(1,0,0,1,1374.99,1556)">
            <path d="M74.854,28.369C109.668,28.369 138.428,-0.391 138.428,-35.205C138.428,-70.019 109.619,-98.779 74.805,-98.779C39.99,-98.779 11.279,-70.019 11.279,-35.205C11.279,-0.391 40.039,28.369 74.854,28.369ZM74.854,19.287C44.629,19.287 20.41,-5.029 20.41,-35.205C20.41,-65.381 44.58,-89.697 74.805,-89.697C104.98,-89.697 129.297,-65.381 129.346,-35.205C129.395,-5.029 105.029,19.287 74.854,19.287Z" style="fill:none;fill-rule:nonzero;"/>
        </g>
        <g id="Medium-L" transform="matrix(1,0,0,1,1670.9,1556)">
            <path d="M75.635,29.199C110.938,29.199 140.039,0.049 140.039,-35.205C140.039,-70.459 110.889,-99.609 75.586,-99.609C40.332,-99.609 11.279,-70.459 11.279,-35.205C11.279,0.049 40.381,29.199 75.635,29.199ZM75.635,18.066C46.143,18.066 22.461,-5.713 22.461,-35.205C22.461,-64.697 46.094,-88.477 75.586,-88.477C105.127,-88.477 128.857,-64.697 128.906,-35.205C128.955,-5.713 105.176,18.066 75.635,18.066Z" style="fill:none;fill-rule:nonzero;"/>
        </g>
        <g id="Semibold-L" transform="matrix(1,0,0,1,1967,1556)">
            <path d="M76.269,29.785C111.914,29.785 141.26,0.439 141.26,-35.205C141.26,-70.85 111.865,-100.244 76.221,-100.244C40.576,-100.244 11.279,-70.85 11.279,-35.205C11.279,0.439 40.625,29.785 76.269,29.785ZM76.269,17.09C47.315,17.09 24.023,-6.25 24.023,-35.205C24.023,-64.209 47.266,-87.5 76.221,-87.5C105.225,-87.5 128.516,-64.209 128.564,-35.205C128.613,-6.25 105.273,17.09 76.269,17.09Z" style="fill:none;fill-rule:nonzero;"/>
        </g>
        <g id="Bold-L" transform="matrix(1,0,0,1,2262.9,1556)">
            <path d="M77.1,30.615C113.184,30.615 142.92,0.879 142.92,-35.205C142.92,-71.338 113.135,-101.025 77.051,-101.025C40.918,-101.025 11.279,-71.338 11.279,-35.205C11.279,0.879 40.967,30.615 77.1,30.615ZM77.1,15.869C48.779,15.869 26.074,-6.934 26.074,-35.205C26.074,-63.477 48.779,-86.279 77.051,-86.279C105.322,-86.279 128.125,-63.477 128.125,-35.205C128.174,-6.934 105.371,15.869 77.1,15.869Z" style="fill:none;fill-rule:nonzero;"/>
        </g>
        <g id="Heavy-L" transform="matrix(1,0,0,1,2558.42,1556)">
            <path d="M78.272,31.787C115.039,31.787 145.264,1.611 145.264,-35.205C145.264,-72.022 115.039,-102.197 78.223,-102.197C41.455,-102.197 11.279,-72.022 11.279,-35.205C11.279,1.611 41.455,31.787 78.272,31.787ZM78.272,14.014C50.977,14.014 29.053,-7.959 29.053,-35.205C29.053,-62.5 50.977,-84.473 78.223,-84.473C105.518,-84.473 127.49,-62.5 127.49,-35.205C127.539,-7.959 105.518,14.014 78.272,14.014Z" style="fill:none;fill-rule:nonzero;"/>
        </g>
        <g id="Black-L" transform="matrix(1,0,0,1,2854.08,1556)">
            <path d="M79.297,32.861C116.748,32.861 147.363,2.197 147.363,-35.205C147.363,-72.607 116.699,-103.271 79.297,-103.271C41.895,-103.271 11.279,-72.607 11.279,-35.205C11.279,2.197 41.895,32.861 79.297,32.861ZM79.297,12.402C52.93,12.402 31.738,-8.838 31.738,-35.205C31.738,-61.572 52.93,-82.813 79.297,-82.813C105.664,-82.813 126.904,-61.572 126.953,-35.205C126.953,-8.838 105.664,12.402 79.297,12.402Z" style="fill:none;fill-rule:nonzero;"/>
        </g>
    </g>
</svg>
